HIERARCHY
ROOT joint_Root
{
	OFFSET 0.0 0.0 0.0
	CHANNELS 6 Xposition Yposition Zposition Zrotation Xrotation Yrotation 
	JOINT Hips
	{
		OFFSET -17.1583 93.1646 452.98
		CHANNELS 6 Xposition Yposition Zposition Zrotation Xrotation Yrotation 
		JOINT Spine
		{
			OFFSET 15.7357 0.0 0.0
			CHANNELS 6 Xposition Yposition Zposition Zrotation Xrotation Yrotation 
			JOINT Chest
			{
				OFFSET 8.98455 -0.406207 0.0
				CHANNELS 6 Xposition Yposition Zposition Zrotation Xrotation Yrotation 
				JOINT Neck
				{
					OFFSET 16.3773 0.0 0.0
					CHANNELS 6 Xposition Yposition Zposition Zrotation Xrotation Yrotation 
					JOINT Head
					{
						OFFSET 6.45672 0.0 0.0
						CHANNELS 6 Xposition Yposition Zposition Zrotation Xrotation Yrotation 
						End Site
						{
							OFFSET 0.0 0.0 0.0
						}
					}
				}
				JOINT Shoulder_L
				{
					OFFSET 12.9942 -0.242716 4.98039
					CHANNELS 6 Xposition Yposition Zposition Zrotation Xrotation Yrotation 
					JOINT UpperArm_L
					{
						OFFSET 5.34809 0.0 0.0
						CHANNELS 6 Xposition Yposition Zposition Zrotation Xrotation Yrotation 
						JOINT LowerArm_L
						{
							OFFSET 24.3286 1.87007e-05 0.0
							CHANNELS 6 Xposition Yposition Zposition Zrotation Xrotation Yrotation 
							JOINT Hand_L
							{
								OFFSET 22.2916 0.0 0.0
								CHANNELS 6 Xposition Yposition Zposition Zrotation Xrotation Yrotation 
								End Site
								{
									OFFSET 0.0 0.0 0.0
								}
							}
						}
					}
				}
				JOINT Shoulder_R
				{
					OFFSET 12.9945 -0.242716 -4.98039
					CHANNELS 6 Xposition Yposition Zposition Zrotation Xrotation Yrotation 
					JOINT UpperArm_R
					{
						OFFSET -5.34813 0.0 0.0
						CHANNELS 6 Xposition Yposition Zposition Zrotation Xrotation Yrotation 
						JOINT LowerArm_R
						{
							OFFSET -24.3289 0.000322201 0.0
							CHANNELS 6 Xposition Yposition Zposition Zrotation Xrotation Yrotation 
							JOINT Hand_R
							{
								OFFSET -22.2915 -0.000108084 0.0
								CHANNELS 6 Xposition Yposition Zposition Zrotation Xrotation Yrotation 
								End Site
								{
									OFFSET 0.0 0.0 0.0
								}
							}
						}
					}
				}
			}
		}
		JOINT UpperLeg_L
		{
			OFFSET -2.19248 -6.46944 0.0
			CHANNELS 6 Xposition Yposition Zposition Zrotation Xrotation Yrotation 
			JOINT LowerLeg_L
			{
				OFFSET 39.0811 0.0 -1.23785e-05
				CHANNELS 6 Xposition Yposition Zposition Zrotation Xrotation Yrotation 
				JOINT Foot_L
				{
					OFFSET 40.9854 0.0 -1.26872e-05
					CHANNELS 6 Xposition Yposition Zposition Zrotation Xrotation Yrotation 
					JOINT Toes_L
					{
						OFFSET 11.7543 0.0 0.0
						CHANNELS 6 Xposition Yposition Zposition Zrotation Xrotation Yrotation 
						End Site
						{
							OFFSET 0.0 0.0 0.0
						}
					}
				}
			}
		}
		JOINT UpperLeg_R
		{
			OFFSET -2.19251 6.46944 0.0
			CHANNELS 6 Xposition Yposition Zposition Zrotation Xrotation Yrotation 
			JOINT LowerLeg_R
			{
				OFFSET -39.0811 -0.00228153 -0.0401928
				CHANNELS 6 Xposition Yposition Zposition Zrotation Xrotation Yrotation 
				JOINT Foot_R
				{
					OFFSET -40.9854 0.0 0.0
					CHANNELS 6 Xposition Yposition Zposition Zrotation Xrotation Yrotation 
					JOINT Toes_R
					{
						OFFSET -11.7543 0.0 0.0
						CHANNELS 6 Xposition Yposition Zposition Zrotation Xrotation Yrotation 
						End Site
						{
							OFFSET 0.0 0.0 0.0
						}
					}
				}
			}
		}
	}
}
MOTION
Frames:	5
Frame Time:	0.0333333
0.000000 0.000000 0.000000 0.000000 0.000000 -0.000000 0.351587 92.902800 0.725561 87.788400 -2.280990 3.143950 15.735700 0.000005 -0.000001 105.014000 86.813500 -101.473000 8.984550 -0.406207 -0.000000 -1.642790 1.360120 7.100820 16.377300 -0.000001 -0.000001 -1.526840 5.617100 1.059230 6.456720 -0.000001 -0.000000 2.613370 4.204900 27.487500 12.994200 -0.242716 4.980390 -88.293200 -3.246250 -62.246600 5.348090 -0.000007 -0.000001 -61.071400 -59.118500 -118.212000 24.328600 0.000019 0.000005 42.663300 34.230800 -58.596700 22.291600 -0.000001 0.000005 62.668700 4.843680 10.444100 12.994500 -0.242716 -4.980390 88.738700 4.670960 -74.870800 -5.348130 -0.000001 -0.000004 -67.427600 11.324200 -2.882170 -24.328900 0.000322 -0.000009 1.125960 4.428850 -14.292400 -22.291500 -0.000108 -0.000004 6.503790 5.221670 2.170030 -2.192480 -6.469440 -0.000000 -173.400000 -5.160660 1.383610 39.081100 -0.000007 -0.000012 0.026458 -0.086583 16.992300 40.985400 -0.000006 -0.000013 -0.389794 11.671200 -70.009300 11.754300 -0.000000 0.000003 -0.001080 0.184167 -9.105980 -2.192510 6.469440 -0.000001 176.146000 3.843430 -176.436000 -39.081100 -0.002282 -0.040193 0.002107 0.005953 11.663700 -40.985400 0.000008 0.000006 -6.539210 9.269180 -67.095900 -11.754300 -0.000006 -0.000006 -0.010546 0.275342 -5.385850
0.000000 0.000000 0.000000 0.000000 0.000000 -0.000000 0.410843 92.907900 0.698317 87.830200 -2.331680 3.136010 15.735700 0.000005 -0.000001 104.387000 86.828900 -100.726000 8.984550 -0.406207 -0.000000 -1.652900 1.274940 7.337740 16.377300 -0.000001 -0.000001 -1.639700 5.924010 0.784204 6.456720 -0.000001 -0.000000 2.554190 4.544370 26.954800 12.994200 -0.242716 4.980390 -88.304300 -3.236310 -62.328300 5.348090 -0.000007 -0.000001 -61.461200 -58.948800 -118.564000 24.328600 0.000019 0.000005 32.886800 33.508800 -49.505000 22.291600 -0.000001 0.000005 53.598100 4.911460 9.141900 12.994500 -0.242716 -4.980390 88.753700 4.634570 -74.930800 -5.348130 -0.000001 -0.000004 -67.795400 12.179200 -3.386640 -24.328900 0.000322 -0.000009 1.182090 4.689280 -14.177600 -22.291500 -0.000108 -0.000004 6.320940 5.220350 2.203680 -2.192480 -6.469440 -0.000000 -173.450000 -5.428480 1.380560 39.081100 -0.000007 -0.000012 0.027372 -0.089710 16.968100 40.985400 -0.000006 -0.000013 -0.322727 11.854200 -70.001700 11.754300 -0.000000 0.000003 -0.000984 0.182809 -9.161200 -2.192510 6.469440 -0.000001 176.080000 3.747360 -176.467000 -39.081100 -0.002282 -0.040193 0.002472 0.004193 11.642800 -40.985400 0.000008 0.000006 -6.561710 9.213530 -67.066100 -11.754300 -0.000006 -0.000006 -0.010429 0.274484 -5.420940
0.000000 0.000000 0.000000 0.000000 0.000000 -0.000000 0.455160 92.919000 0.685415 87.858700 -2.501340 3.087820 15.735700 0.000005 -0.000001 103.534000 86.852500 -99.739200 8.984550 -0.406207 -0.000000 -1.673040 1.160600 7.605390 16.377300 -0.000001 -0.000001 -1.638830 6.137420 0.767554 6.456720 -0.000001 -0.000000 2.303180 4.880630 26.608200 12.994200 -0.242716 4.980390 -88.304200 -3.243320 -62.377300 5.348090 -0.000007 -0.000001 -60.987700 -59.374400 -117.332000 24.328600 0.000019 0.000005 24.079200 32.480000 -39.761300 22.291600 -0.000001 0.000005 47.922900 4.897020 9.440690 12.994500 -0.242716 -4.980390 88.774800 4.561410 -74.947300 -5.348130 -0.000001 -0.000004 -68.065600 13.262900 -3.742400 -24.328900 0.000322 -0.000009 1.205080 4.690910 -14.436800 -22.291500 -0.000108 -0.000004 6.159840 5.219280 2.231100 -2.192480 -6.469440 -0.000000 -173.491000 -5.689650 1.417550 39.081100 -0.000007 -0.000012 0.028081 -0.092694 16.854300 40.985400 -0.000006 -0.000013 -0.292050 11.917300 -69.976000 11.754300 -0.000000 0.000003 -0.001020 0.183315 -9.140620 -2.192510 6.469440 -0.000001 176.017000 3.553480 -176.520000 -39.081100 -0.002282 -0.040193 0.001533 0.008809 11.567500 -40.985400 0.000008 0.000006 -6.803620 9.213250 -66.951000 -11.754300 -0.000006 -0.000006 -0.010278 0.273371 -5.466500
0.000000 0.000000 0.000000 0.000000 0.000000 -0.000000 0.493260 92.921200 0.685612 87.880800 -2.772470 2.983340 15.735700 0.000005 -0.000001 103.449000 86.886100 -99.527000 8.984550 -0.406207 -0.000000 -1.735330 1.123330 7.859110 16.377300 -0.000001 -0.000001 -1.689880 6.098350 1.020960 6.456720 -0.000001 -0.000000 2.198590 5.021020 26.575900 12.994200 -0.242716 4.980390 -88.267700 -3.326200 -62.468000 5.348090 -0.000007 -0.000001 -58.997500 -60.270500 -113.813000 24.328600 0.000019 0.000005 16.074100 29.917700 -30.009800 22.291600 -0.000001 0.000005 45.956700 4.861190 10.142100 12.994500 -0.242716 -4.980390 88.780700 4.534140 -74.931600 -5.348130 -0.000001 -0.000004 -68.205100 13.923000 -3.823240 -24.328900 0.000322 -0.000009 1.314710 4.906120 -15.032900 -22.291500 -0.000108 -0.000004 5.724730 5.221530 2.173320 -2.192480 -6.469440 -0.000000 -173.531000 -5.994450 1.386540 39.081100 -0.000007 -0.000012 0.028208 -0.093438 16.798700 40.985400 -0.000006 -0.000013 -0.266020 11.917300 -69.940400 11.754300 -0.000000 0.000003 -0.000989 0.182883 -9.158160 -2.192510 6.469440 -0.000001 176.005000 3.297500 -176.679000 -39.081100 -0.002282 -0.040193 0.002457 0.004290 11.578000 -40.985400 0.000008 0.000006 -6.729700 9.193580 -66.952500 -11.754300 -0.000006 -0.000006 -0.010169 0.272565 -5.499470
0.000000 0.000000 0.000000 0.000000 0.000000 -0.000000 0.521904 92.919000 0.722231 87.887300 -3.056990 2.931350 15.735700 0.000005 -0.000001 103.391000 86.918500 -99.339300 8.984550 -0.406207 -0.000000 -1.796230 1.089300 8.118450 16.377300 -0.000001 -0.000001 -1.742380 5.731910 1.437570 6.456720 -0.000001 -0.000000 2.350840 4.903680 26.790000 12.994200 -0.242716 4.980390 -88.234000 -3.395690 -62.501700 5.348090 -0.000007 -0.000001 -55.309900 -61.207700 -107.941000 24.328600 0.000019 0.000005 9.956500 26.775100 -21.285300 22.291600 -0.000001 0.000005 43.679200 4.831690 10.718700 12.994500 -0.242716 -4.980390 88.785500 4.499830 -74.878600 -5.348130 -0.000001 -0.000004 -68.266700 14.160300 -3.684640 -24.328900 0.000322 -0.000009 1.326280 4.734820 -15.679500 -22.291500 -0.000108 -0.000004 5.418610 5.227330 2.024370 -2.192480 -6.469440 -0.000000 -173.578000 -6.046920 1.439960 39.081100 -0.000007 -0.000012 0.028646 -0.095184 16.749400 40.985400 -0.000006 -0.000013 -0.274384 11.713000 -69.993900 11.754300 -0.000000 0.000003 -0.000934 0.182095 -9.190220 -2.192510 6.469440 -0.000001 175.989000 3.140530 -176.735000 -39.081100 -0.002282 -0.040193 0.002934 0.001968 11.559100 -40.985400 0.000008 0.000006 -6.628870 9.280320 -66.974100 -11.754300 -0.000006 -0.000006 -0.010203 0.272813 -5.489300
